# 3ds Max Wavefront OBJ Exporter v0.99 - (c)2007 guruware
# File Created: 05.12.2022 22:50:22

mtllib piramid.mtl

#
# object Pyramid001
#

v  0.0000 7.0000 -0.0000
v  -2.5000 5.0000 2.5000
v  2.5000 5.0000 2.5000
v  2.5000 5.0000 -2.5000
v  -2.5000 5.0000 -2.5000
v  0.0000 5.0000 -0.0000
# 6 vertices

vn 0.0000 0.7809 0.6247
vn 0.6247 0.7809 -0.0000
vn 0.0000 0.7809 -0.6247
vn -0.6247 0.7809 -0.0000
vn 0.0000 -1.0000 -0.0000
# 5 vertex normals

vt 0.5000 1.0000 0.0000
vt 0.0000 0.0000 0.0000
vt 1.0000 0.0000 0.0000
vt 0.0000 1.0000 0.0000
vt 0.5000 0.5000 0.0000
vt 1.0000 1.0000 0.0000
# 6 texture coords

o Pyramid001
g Pyramid001
usemtl piramid_wire_177028149
f 1/1/1 2/2/1 3/3/1 
f 1/1/2 3/2/2 4/3/2 
f 1/1/3 4/2/3 5/3/3 
f 1/1/4 5/2/4 2/3/4 
f 2/4/5 6/5/5 3/6/5 
f 3/6/5 6/5/5 4/3/5 
f 4/3/5 6/5/5 5/2/5 
f 5/2/5 6/5/5 2/4/5 
# 8 faces

